<?xml version="1.0" encoding="UTF-8" standalone="no"?>
<svg width="125px" height="125px" viewBox="0 0 125 125" version="1.1" xmlns="http://www.w3.org/2000/svg" xmlns:xlink="http://www.w3.org/1999/xlink">
    <!-- Generator: Sketch 3.8.2 (29753) - http://www.bohemiancoding.com/sketch -->
    <title>Artboard</title>
    <desc>Created with Sketch.</desc>
    <defs></defs>
    <g id="Page-1" stroke="none" stroke-width="1" fill="none" fill-rule="evenodd">
        <g id="Artboard" fill="#000000">
            <path d="M62.5,124 C96.4655121,124 124,96.4655121 124,62.5 C124,28.5344879 96.4655121,1 62.5,1 C28.5344879,1 1,28.5344879 1,62.5 C1,96.4655121 28.5344879,124 62.5,124 L62.5,124 Z M62.5,113 C34.6096201,113 12,90.3903799 12,62.5 C12,34.6096201 34.6096201,12 62.5,12 C90.3903799,12 113,34.6096201 113,62.5 C113,90.3903799 90.3903799,113 62.5,113 L62.5,113 Z" id="Oval-1"></path>
            <circle id="Oval-2" cx="62.5" cy="62.5" r="25.5"></circle>
        </g>
    </g>
</svg>