<?xml version="1.0" encoding="utf-8"?>
<!-- Generator: Adobe Illustrator 18.0.0, SVG Export Plug-In . SVG Version: 6.00 Build 0)  -->
<!DOCTYPE svg PUBLIC "-//W3C//DTD SVG 1.0//EN" "http://www.w3.org/TR/2001/REC-SVG-20010904/DTD/svg10.dtd">
<svg xmlns="http://www.w3.org/2000/svg" xmlns:xlink="http://www.w3.org/1999/xlink" version="1.0" id="Layer_1" x="0px" y="0px" viewBox="0 0 24 24" enable-background="new 0 0 24 24" xml:space="preserve" fill="#000000">
<g fill="#000000">
	<g fill="#000000">
		<path d="M9,4c2.8,0,5,2.2,5,5s-2.2,5-5,5s-5-2.2-5-5S6.2,4,9,4 M9,2C5.1,2,2,5.1,2,9c0,3.9,3.1,7,7,7s7-3.1,7-7C16,5.1,12.9,2,9,2    L9,2z" fill="#000000"/>
	</g>
</g>
<g fill="#000000">
	<polygon points="22,20.3 20.3,22 14,15.7 14,14 15.7,14  " fill="#000000"/>
	<rect x="13.8" y="12.6" transform="matrix(0.7071 -0.7071 0.7071 0.7071 -5.9741 14.4227)" width="1.2" height="3.6" fill="#000000"/>
</g>
</svg>
